<svg width="350" height="350" viewBox="0 0 350 350" fill="none" xmlns="http://www.w3.org/2000/svg">
<rect width="350" height="350" fill="#8ACCB8"/>
<path d="M223 126.5C225.975 126.5 228.469 125.494 230.481 123.481C232.494 121.469 233.5 118.975 233.5 116C233.5 113.025 232.494 110.531 230.481 108.519C228.469 106.506 225.975 105.5 223 105.5C220.025 105.5 217.531 106.506 215.519 108.519C213.506 110.531 212.5 113.025 212.5 116C212.5 118.975 213.506 121.469 215.519 123.481C217.531 125.494 220.025 126.5 223 126.5ZM139 105.5H191.5V84.5H139V105.5ZM102.25 231.5C96.3 211.55 90.4375 191.644 84.6625 171.781C78.8875 151.919 76 131.575 76 110.75C76 94.65 81.6 81 92.8 69.8C104 58.6 117.65 53 133.75 53H186.25C191.325 46.35 197.494 41.1875 204.756 37.5125C212.019 33.8375 219.85 32 228.25 32C232.625 32 236.344 33.5313 239.406 36.5938C242.469 39.6562 244 43.375 244 47.75C244 48.8 243.869 49.85 243.606 50.9C243.344 51.95 243.038 52.9125 242.688 53.7875C241.988 55.7125 241.331 57.6813 240.719 59.6938C240.106 61.7062 239.625 63.7625 239.275 65.8625L263.163 89.75H286V162.988L256.338 172.7L238.75 231.5H181V210.5H160V231.5H102.25ZM118 210.5H139V189.5H202V210.5H223L239.275 156.425L265 147.763V110.75H254.5L217.75 74C217.75 70.5 217.969 67.1313 218.406 63.8938C218.844 60.6563 219.5 57.375 220.375 54.05C215.3 55.45 210.837 57.8563 206.987 61.2688C203.137 64.6813 200.338 68.925 198.588 74H133.75C123.6 74 114.937 77.5875 107.762 84.7625C100.588 91.9375 97 100.6 97 110.75C97 127.9 99.3625 144.656 104.087 161.019C108.812 177.381 113.45 193.875 118 210.5Z" fill="white"/>
<path d="M37.5859 285.18C37.5859 281.935 38.6797 279.146 40.8672 276.812C43.0911 274.443 45.9167 273.24 49.3438 273.203C52.8438 273.203 55.724 274.388 57.9844 276.758C59.6979 278.508 60.7734 280.477 61.2109 282.664H68.8125V273.531C68.8125 272.51 68.6667 271.836 68.375 271.508C68.0833 271.18 67.5729 270.924 66.8438 270.742C66.1146 270.56 65.513 270.359 65.0391 270.141C64.6016 269.922 64.3828 269.557 64.3828 269.047C64.3828 268.062 65.0208 267.57 66.2969 267.57H71.2188C72.7865 267.57 73.5703 268.354 73.5703 269.922V302.133C73.5703 305.56 72.3672 307.273 69.9609 307.273H68.8125V286.656H61.375C61.0469 289.245 59.9167 291.505 57.9844 293.438C55.724 295.771 52.8438 296.956 49.3438 296.992C45.9167 296.992 43.0911 295.826 40.8672 293.492C38.6797 291.122 37.5859 288.352 37.5859 285.18ZM42.3984 285.18C42.3984 287.404 43.0365 289.245 44.3125 290.703C45.5885 292.161 47.2656 292.891 49.3438 292.891C51.4583 292.891 53.1901 292.161 54.5391 290.703C55.9245 289.208 56.6172 287.367 56.6172 285.18C56.6172 282.956 55.9245 281.096 54.5391 279.602C53.1901 278.07 51.4583 277.305 49.3438 277.305C47.3021 277.305 45.625 278.052 44.3125 279.547C43.0365 281.005 42.3984 282.883 42.3984 285.18ZM73.9531 319.305H55.3047C51.8776 319.305 50.1641 317.682 50.1641 314.438V308.422C50.1641 307.401 50 306.727 49.6719 306.398C49.3802 306.07 48.8698 305.815 48.1406 305.633C47.375 305.378 46.8464 305.159 46.5547 304.977C46.263 304.758 46.1172 304.393 46.1172 303.883C46.1172 302.898 46.7005 302.406 47.8672 302.406H52.625C54.1562 302.406 54.9219 303.263 54.9219 304.977V314.109C54.9219 314.875 55.2682 315.258 55.9609 315.258H74.0078C75.2109 315.258 75.8125 315.932 75.8125 317.281C75.8125 318.63 75.1927 319.305 73.9531 319.305ZM88.6094 298.195H104.469C105.635 298.195 106.219 298.852 106.219 300.164C106.219 301.513 105.617 302.188 104.414 302.188H85.8203C83.6328 302.188 82.5391 300.948 82.5391 298.469V280.859C82.5391 279.984 82.4844 279.383 82.375 279.055C82.3021 278.727 81.974 278.453 81.3906 278.234C80.8438 278.016 80.3698 277.797 79.9688 277.578C79.6042 277.359 79.4219 277.013 79.4219 276.539C79.4219 275.591 80.0599 275.117 81.3359 275.117H84.7812C86.4583 275.117 87.2969 275.974 87.2969 277.688V296.664C87.2969 297.685 87.7344 298.195 88.6094 298.195ZM111.25 273.586C111.25 272.529 111.104 271.836 110.812 271.508C110.521 271.18 110.01 270.924 109.281 270.742C108.552 270.56 107.951 270.359 107.477 270.141C107.039 269.922 106.82 269.557 106.82 269.047C106.82 268.062 107.458 267.57 108.734 267.57H113.656C115.224 267.57 116.008 268.336 116.008 269.867V314.766C116.008 318.193 114.805 319.906 112.398 319.906H111.25V273.586ZM123.664 284.742C123.664 281.534 124.776 278.854 127 276.703C129.26 274.516 132.068 273.422 135.422 273.422C138.812 273.422 141.638 274.516 143.898 276.703C146.159 278.854 147.289 281.534 147.289 284.742C147.289 287.914 146.159 290.576 143.898 292.727C141.638 294.878 138.812 295.953 135.422 295.953C132.068 295.953 129.26 294.878 127 292.727C124.776 290.576 123.664 287.914 123.664 284.742ZM128.477 284.742C128.477 286.784 129.133 288.479 130.445 289.828C131.794 291.177 133.453 291.852 135.422 291.852C137.464 291.852 139.141 291.177 140.453 289.828C141.802 288.479 142.477 286.784 142.477 284.742C142.477 282.664 141.802 280.951 140.453 279.602C139.141 278.216 137.464 277.523 135.422 277.523C133.453 277.523 131.794 278.216 130.445 279.602C129.133 280.951 128.477 282.664 128.477 284.742ZM153.688 273.586C153.688 272.529 153.542 271.836 153.25 271.508C152.958 271.18 152.448 270.924 151.719 270.742C150.99 270.56 150.388 270.359 149.914 270.141C149.477 269.922 149.258 269.557 149.258 269.047C149.258 268.062 149.896 267.57 151.172 267.57H156.094C157.661 267.57 158.445 268.336 158.445 269.867V314.766C158.445 318.193 157.242 319.906 154.836 319.906H153.688V273.586ZM138.922 307.438H123.281C122.151 307.438 121.586 306.763 121.586 305.414C121.586 304.065 122.151 303.391 123.281 303.391H139.195C141.456 303.391 143.37 303.372 144.938 303.336C146.505 303.263 148.109 303.081 149.75 302.789C151.099 302.534 151.883 302.789 152.102 303.555C152.357 304.284 152.102 304.885 151.336 305.359C150.424 305.943 148.911 306.435 146.797 306.836C144.682 307.237 142.057 307.438 138.922 307.438ZM184.805 279.93C183.638 279.93 183.055 279.255 183.055 277.906C183.055 276.594 183.638 275.938 184.805 275.938H202.414C203.143 275.938 203.708 276.247 204.109 276.867C204.547 277.487 204.693 278.143 204.547 278.836C203.781 283.539 201.448 288.333 197.547 293.219C193.682 298.068 189.362 301.987 184.586 304.977C183.31 305.779 182.38 305.797 181.797 305.031C181.25 304.229 181.487 303.445 182.508 302.68C186.591 299.508 190.109 295.807 193.062 291.578C196.052 287.349 197.966 283.466 198.805 279.93H184.805ZM211.93 273.586C211.93 272.529 211.766 271.836 211.438 271.508C211.146 271.18 210.654 270.924 209.961 270.742C209.195 270.56 208.594 270.359 208.156 270.141C207.719 269.922 207.5 269.557 207.5 269.047C207.5 268.062 208.138 267.57 209.414 267.57H214.391C215.922 267.57 216.688 268.336 216.688 269.867V286.711H223.523C224.69 286.711 225.273 287.404 225.273 288.789C225.273 290.138 224.69 290.812 223.523 290.812H216.688V314.82C216.688 318.174 215.466 319.852 213.023 319.852H211.93V273.586ZM230.25 279.93C229.083 279.93 228.5 279.255 228.5 277.906C228.5 276.594 229.083 275.938 230.25 275.938H244.906C245.708 275.938 246.292 276.247 246.656 276.867C247.021 277.487 247.167 278.143 247.094 278.836C246.948 279.857 246.729 280.914 246.438 282.008H252.016V275.883C252.016 274.826 251.888 274.151 251.633 273.859C251.414 273.531 250.94 273.258 250.211 273.039C249.409 272.82 248.807 272.602 248.406 272.383C248.005 272.128 247.805 271.763 247.805 271.289C247.805 270.378 248.424 269.922 249.664 269.922H254.312C255.88 269.922 256.664 270.742 256.664 272.383V311.375C256.664 314.839 255.443 316.57 253 316.57H252.016V296.992H244.578C243.375 296.992 242.773 296.336 242.773 295.023C242.773 293.747 243.375 293.109 244.578 293.109H252.016V285.945H245.07C244.013 288.424 242.628 290.922 240.914 293.438C237.451 298.323 233.841 302.151 230.086 304.922C228.846 305.797 227.953 305.852 227.406 305.086C226.859 304.32 227.023 303.555 227.898 302.789C231.544 299.471 234.552 295.734 236.922 291.578C239.328 287.422 240.896 283.539 241.625 279.93H230.25ZM259.234 267.57H263.992C265.633 267.57 266.453 268.336 266.453 269.867V314.766C266.453 318.193 265.214 319.906 262.734 319.906H261.641V273.531C261.641 272.474 261.513 271.781 261.258 271.453C261.039 271.125 260.529 270.87 259.727 270.688C258.924 270.505 258.305 270.323 257.867 270.141C257.466 269.922 257.266 269.557 257.266 269.047C257.266 268.062 257.922 267.57 259.234 267.57ZM284.719 277.688H300.578V275.281C300.578 274.333 300.505 273.75 300.359 273.531C300.25 273.312 300.049 273.148 299.758 273.039C299.174 272.82 298.701 272.638 298.336 272.492C298.008 272.31 297.844 271.964 297.844 271.453C297.844 270.505 298.464 270.031 299.703 270.031H302.93C304.534 270.031 305.336 270.852 305.336 272.492V284.906C305.336 286.474 305.062 287.695 304.516 288.57C305.536 288.643 306.047 289.299 306.047 290.539C306.047 291.852 305.464 292.508 304.297 292.508H283.734C283.115 293.529 282.258 294.039 281.164 294.039H279.961V277.086C279.961 276.102 279.906 275.482 279.797 275.227C279.688 274.971 279.487 274.789 279.195 274.68C278.831 274.534 278.43 274.37 277.992 274.188C277.555 274.005 277.336 273.659 277.336 273.148C277.336 272.164 277.956 271.672 279.195 271.672H282.477C283.971 271.672 284.719 272.51 284.719 274.188V277.688ZM300.578 281.68H284.719V286.984C284.719 287.531 284.701 288.06 284.664 288.57H300.578V281.68ZM295.055 301.805V314.438C295.055 318.083 293.924 319.906 291.664 319.906H290.352V301.805H272.852C271.758 301.805 271.211 301.148 271.211 299.836C271.211 298.523 271.758 297.867 272.852 297.867H312.281C313.521 297.867 314.141 298.523 314.141 299.836C314.141 301.148 313.521 301.805 312.281 301.805H295.055Z" fill="white"/>
</svg>
